<svg xmlns="http://www.w3.org/2000/svg" width="56.39" height="65.175" viewBox="0 0 56.39 65.175">
  <g id="iconfinder_idea_2799205" transform="translate(0.75 0.75)">
    <path id="Path_1951" data-name="Path 1951" d="M161.628,117.919a16.035,16.035,0,1,0-30.59,6.735l7.775,17.026h13.559l7.775-17.026A15.976,15.976,0,0,0,161.628,117.919Z" transform="translate(-118.148 -89.773)" fill="#73b3b9"/>
    <path id="Path_1952" data-name="Path 1952" d="M236.044,101.85a16.036,16.036,0,0,0-2.144.16,16.026,16.026,0,0,1,12.411,22.611l-7.775,17.026h4.287L250.6,124.62a16.04,16.04,0,0,0-14.555-22.77Z" transform="translate(-208.599 -89.739)" fill="#3e8088"/>
    <line id="Line_109" data-name="Line 109" y2="5.264" transform="translate(27.445 0)" fill="none" stroke="#184765" stroke-linecap="round" stroke-linejoin="round" stroke-width="1.5"/>
    <line id="Line_110" data-name="Line 110" x1="3.692" y2="3.752" transform="translate(43.517 8.36)" fill="none" stroke="#184765" stroke-linecap="round" stroke-linejoin="round" stroke-width="1.5"/>
    <line id="Line_111" data-name="Line 111" x1="5.263" transform="translate(49.627 28.265)" fill="none" stroke="#184765" stroke-linecap="round" stroke-linejoin="round" stroke-width="1.5"/>
    <line id="Line_112" data-name="Line 112" x2="3.692" y2="3.752" transform="translate(7.681 8.36)" fill="none" stroke="#184765" stroke-linecap="round" stroke-linejoin="round" stroke-width="1.5"/>
    <line id="Line_113" data-name="Line 113" x2="5.263" transform="translate(0 28.265)" fill="none" stroke="#184765" stroke-linecap="round" stroke-linejoin="round" stroke-width="1.5"/>
    <path id="Path_1953" data-name="Path 1953" d="M161.628,117.919a16.035,16.035,0,1,0-30.59,6.735l7.775,17.026h13.559l7.775-17.026A15.976,15.976,0,0,0,161.628,117.919Z" transform="translate(-118.148 -89.773)" fill="none" stroke="#184765" stroke-linecap="round" stroke-linejoin="round" stroke-width="1.5"/>
    <path id="Path_1954" data-name="Path 1954" d="M199,400.76h13.58v4.978a6.79,6.79,0,0,1-6.79,6.79h0a6.79,6.79,0,0,1-6.79-6.79Z" transform="translate(-178.345 -348.853)" fill="#3d7d85"/>
    <path id="Path_1955" data-name="Path 1955" d="M238.543,400.76v4.978a6.79,6.79,0,0,1-4.642,6.435,6.759,6.759,0,0,0,2.144.351h0a6.79,6.79,0,0,0,6.79-6.79V400.76Z" transform="translate(-208.599 -348.853)" fill="#356e76"/>
    <path id="Path_1956" data-name="Path 1956" d="M199,400.76h13.58v4.978a6.79,6.79,0,0,1-6.79,6.79h0a6.79,6.79,0,0,1-6.79-6.79Z" transform="translate(-178.345 -348.853)" fill="none" stroke="#184765" stroke-linecap="round" stroke-linejoin="round" stroke-width="1.5"/>
    <line id="Line_114" data-name="Line 114" x2="16.938" transform="translate(18.976 56.616)" fill="none" stroke="#184765" stroke-linecap="round" stroke-linejoin="round" stroke-width="1.5"/>
    <line id="Line_115" data-name="Line 115" x2="16.938" transform="translate(18.976 51.907)" fill="none" stroke="#184765" stroke-linecap="round" stroke-linejoin="round" stroke-width="1.5"/>
  </g>
</svg>
